<svg width="82" height="109" viewBox="0 0 82 109" fill="none" xmlns="http://www.w3.org/2000/svg">
<circle cx="41" cy="41" r="41" fill="#191919"/>
<path d="M18.4824 104V89.0703H23.7119C25.5234 89.0703 26.8975 89.4189 27.834 90.1162C28.7705 90.8066 29.2388 91.8218 29.2388 93.1616C29.2388 93.8931 29.0508 94.5391 28.6748 95.0996C28.2988 95.6533 27.7759 96.0601 27.106 96.3198C27.8716 96.5112 28.4731 96.8975 28.9106 97.4785C29.355 98.0596 29.5771 98.7705 29.5771 99.6113C29.5771 101.047 29.1191 102.134 28.2031 102.872C27.2871 103.61 25.9814 103.986 24.2861 104H18.4824ZM21.5586 97.499V101.529H24.1938C24.9185 101.529 25.4824 101.358 25.8857 101.016C26.2959 100.667 26.501 100.189 26.501 99.5806C26.501 98.2134 25.7935 97.5195 24.3784 97.499H21.5586ZM21.5586 95.3252H23.835C25.3867 95.2979 26.1626 94.6792 26.1626 93.4692C26.1626 92.7925 25.9644 92.3071 25.5679 92.0132C25.1782 91.7124 24.5596 91.562 23.7119 91.562H21.5586V95.3252ZM34.8271 104H31.8535V92.9053H34.8271V104ZM31.6792 90.0342C31.6792 89.5898 31.8262 89.2241 32.1201 88.937C32.4209 88.6499 32.8276 88.5063 33.3403 88.5063C33.8462 88.5063 34.2495 88.6499 34.5503 88.937C34.8511 89.2241 35.0015 89.5898 35.0015 90.0342C35.0015 90.4854 34.8477 90.8545 34.54 91.1416C34.2393 91.4287 33.8394 91.5723 33.3403 91.5723C32.8413 91.5723 32.438 91.4287 32.1304 91.1416C31.8296 90.8545 31.6792 90.4854 31.6792 90.0342ZM40.8257 90.1777V92.9053H42.7227V95.0791H40.8257V100.616C40.8257 101.026 40.9043 101.32 41.0615 101.498C41.2188 101.676 41.5195 101.765 41.9639 101.765C42.292 101.765 42.5825 101.741 42.8354 101.693V103.938C42.2544 104.116 41.6562 104.205 41.041 104.205C38.9629 104.205 37.9033 103.156 37.8623 101.057V95.0791H36.2422V92.9053H37.8623V90.1777H40.8257ZM50.3823 100.934C50.3823 100.572 50.2012 100.288 49.8389 100.083C49.4834 99.8711 48.9092 99.6831 48.1162 99.519C45.4775 98.9653 44.1582 97.8442 44.1582 96.1558C44.1582 95.1714 44.5649 94.3511 45.3784 93.6948C46.1987 93.0317 47.2686 92.7002 48.5879 92.7002C49.9961 92.7002 51.1206 93.0317 51.9614 93.6948C52.8091 94.3579 53.2329 95.2192 53.2329 96.2788H50.2695C50.2695 95.855 50.1328 95.5063 49.8594 95.2329C49.5859 94.9526 49.1587 94.8125 48.5776 94.8125C48.0786 94.8125 47.6924 94.9253 47.4189 95.1509C47.1455 95.3765 47.0088 95.6636 47.0088 96.0122C47.0088 96.3403 47.1626 96.6069 47.4702 96.812C47.7847 97.0103 48.311 97.1846 49.0493 97.335C49.7876 97.4785 50.4097 97.6426 50.9155 97.8271C52.481 98.4014 53.2637 99.396 53.2637 100.811C53.2637 101.823 52.8296 102.643 51.9614 103.272C51.0933 103.894 49.9722 104.205 48.5981 104.205C47.6685 104.205 46.8413 104.041 46.1167 103.713C45.3989 103.378 44.835 102.923 44.4248 102.349C44.0146 101.768 43.8096 101.143 43.8096 100.473H46.6191C46.6465 100.999 46.8413 101.402 47.2036 101.683C47.5659 101.963 48.0513 102.103 48.6597 102.103C49.2271 102.103 49.6543 101.997 49.9414 101.785C50.2354 101.566 50.3823 101.283 50.3823 100.934ZM61.1899 100.934C61.1899 100.572 61.0088 100.288 60.6465 100.083C60.291 99.8711 59.7168 99.6831 58.9238 99.519C56.2852 98.9653 54.9658 97.8442 54.9658 96.1558C54.9658 95.1714 55.3726 94.3511 56.186 93.6948C57.0063 93.0317 58.0762 92.7002 59.3955 92.7002C60.8037 92.7002 61.9282 93.0317 62.769 93.6948C63.6167 94.3579 64.0405 95.2192 64.0405 96.2788H61.0771C61.0771 95.855 60.9404 95.5063 60.667 95.2329C60.3936 94.9526 59.9663 94.8125 59.3853 94.8125C58.8862 94.8125 58.5 94.9253 58.2266 95.1509C57.9531 95.3765 57.8164 95.6636 57.8164 96.0122C57.8164 96.3403 57.9702 96.6069 58.2778 96.812C58.5923 97.0103 59.1187 97.1846 59.8569 97.335C60.5952 97.4785 61.2173 97.6426 61.7231 97.8271C63.2886 98.4014 64.0713 99.396 64.0713 100.811C64.0713 101.823 63.6372 102.643 62.769 103.272C61.9009 103.894 60.7798 104.205 59.4058 104.205C58.4761 104.205 57.6489 104.041 56.9243 103.713C56.2065 103.378 55.6426 102.923 55.2324 102.349C54.8223 101.768 54.6172 101.143 54.6172 100.473H57.4268C57.4541 100.999 57.6489 101.402 58.0112 101.683C58.3735 101.963 58.8589 102.103 59.4673 102.103C60.0347 102.103 60.4619 101.997 60.749 101.785C61.043 101.566 61.1899 101.283 61.1899 100.934Z" fill="#191919"/>
<path d="M25.0625 62V16.5H41C46.5208 16.5 50.7083 17.5625 53.5625 19.6875C56.4167 21.7917 57.8438 24.8854 57.8438 28.9688C57.8438 31.1979 57.2708 33.1667 56.125 34.875C54.9792 36.5625 53.3854 37.8021 51.3438 38.5938C53.6771 39.1771 55.5104 40.3542 56.8438 42.125C58.1979 43.8958 58.875 46.0625 58.875 48.625C58.875 53 57.4792 56.3125 54.6875 58.5625C51.8958 60.8125 47.9167 61.9583 42.75 62H25.0625ZM34.4375 42.1875V54.4688H42.4688C44.6771 54.4688 46.3958 53.9479 47.625 52.9062C48.875 51.8438 49.5 50.3854 49.5 48.5312C49.5 44.3646 47.3438 42.25 43.0312 42.1875H34.4375ZM34.4375 35.5625H41.375C46.1042 35.4792 48.4688 33.5938 48.4688 29.9062C48.4688 27.8438 47.8646 26.3646 46.6562 25.4688C45.4688 24.5521 43.5833 24.0938 41 24.0938H34.4375V35.5625Z" fill="white"/>
</svg>
